<?xml version="1.0" encoding="UTF-8"?>
<svg version="1.1" xmlns="http://www.w3.org/2000/svg" width="200" height="116">
<path d="M0 0 C6.6 0 13.2 0 20 0 C20 8.91 20 17.82 20 27 C27.59 27 35.18 27 43 27 C43 18.09 43 9.18 43 0 C49.6 0 56.2 0 63 0 C63 24.09 63 48.18 63 73 C56.4 73 49.8 73 43 73 C43 63.76 43 54.52 43 45 C35.41 45 27.82 45 20 45 C20 54.24 20 63.48 20 73 C13.4 73 6.8 73 0 73 C0 48.91 0 24.82 0 0 Z " fill="#820024" transform="translate(2,2)"/>
<path d="M0 0 C-0.52484692 4.55700425 -2.31507303 7.192874 -5.0625 10.8125 C-6.16271484 12.27623047 -6.16271484 12.27623047 -7.28515625 13.76953125 C-7.85105469 14.50558594 -8.41695312 15.24164062 -9 16 C-11.47030271 15.02936779 -13.91300388 14.04006208 -16.32421875 12.9296875 C-22.40443654 10.21620188 -27.37330303 9.49242321 -34 10 C-34 11.65 -34 13.3 -34 15 C-29.08790003 17.36833391 -24.27792989 19.25953739 -19.04760742 20.76464844 C-11.00031578 23.09233895 -3.85469317 25.2844204 0.671875 32.76171875 C3.18959226 38.90050583 3.03805918 46.08256238 1.34375 52.4765625 C-1.48259124 58.78710026 -6.38063457 63.01807784 -12.69140625 65.640625 C-17.06113065 67.19807575 -21.07597297 67.50071972 -25.6875 67.4375 C-26.86107056 67.42614014 -26.86107056 67.42614014 -28.05834961 67.41455078 C-38.39270498 67.12493092 -49.36131422 64.41619978 -57 57 C-57.99609375 55.171875 -57.99609375 55.171875 -58 53 C-56.26953125 50.203125 -56.26953125 50.203125 -53.8125 47.25 C-53.01457031 46.26515625 -52.21664062 45.2803125 -51.39453125 44.265625 C-49 42 -49 42 -45 42 C-43.07129532 42.91271553 -41.17774585 43.9012523 -39.3125 44.9375 C-33.08835585 48.14824753 -27.80852125 50.16587385 -20.9375 48.0625 C-20.298125 47.711875 -19.65875 47.36125 -19 47 C-19.33 45.35 -19.66 43.7 -20 42 C-20.62455078 41.8141333 -21.24910156 41.6282666 -21.89257812 41.43676758 C-24.76553535 40.57418928 -27.63264119 39.69350147 -30.5 38.8125 C-31.48226562 38.52052734 -32.46453125 38.22855469 -33.4765625 37.92773438 C-41.75454346 35.36156028 -49.73363126 32.35731886 -54.15234375 24.43359375 C-56.43455285 17.88144505 -55.92805654 10.50828239 -53.5 4.0625 C-50.61842916 -1.51605708 -45.8654865 -4.56725675 -40.375 -7.3125 C-26.12403552 -11.43777919 -12.05117061 -8.40589553 0 0 Z " fill="#820024" transform="translate(125,9)"/>
<path d="M0 0 C6.6 0 13.2 0 20 0 C20 24.09 20 48.18 20 73 C13.4 73 6.8 73 0 73 C0 48.91 0 24.82 0 0 Z " fill="#820024" transform="translate(130,2)"/>
<path d="M0 0 C4.64126689 1.54708896 7.96623624 2.95971998 12.09765625 5.37109375 C13.22880859 6.02787109 14.35996094 6.68464844 15.52539062 7.36132812 C16.70448445 8.05328767 17.88352043 8.74534581 19.0625 9.4375 C20.24515168 10.12615109 21.42809212 10.81430651 22.61132812 11.50195312 C27.42524536 14.30572352 32.22760559 17.12604689 37 20 C36.84399414 21.78149414 36.84399414 21.78149414 36 24 C33.62670898 25.75170898 33.62670898 25.75170898 30.49609375 27.49609375 C29.36236328 28.13740234 28.22863281 28.77871094 27.06054688 29.43945312 C25.85313334 30.10595585 24.64544902 30.77196826 23.4375 31.4375 C22.2564712 32.09837735 21.07612433 32.76047491 19.89648438 33.42382812 C17.62434037 34.70150865 15.35015127 35.9755605 13.07373047 37.24560547 C10.42688512 38.75634659 7.84949762 40.32742119 5.28515625 41.97265625 C2 44 2 44 0 44 C0 29.48 0 14.96 0 0 Z M14.40234375 13.96875 C13.68369141 14.37480469 12.96503906 14.78085937 12.22460938 15.19921875 C11.09249023 15.84310547 11.09249023 15.84310547 9.9375 16.5 C9.17888672 16.92925781 8.42027344 17.35851562 7.63867188 17.80078125 C5.75803938 18.86529021 3.87888237 19.93240506 2 21 C5.17923778 24.55696901 8.53292272 26.55711981 12.75 28.75 C14.8125 29.8225 16.875 30.895 19 32 C19 25.4 19 18.8 19 12 C17.25530912 12 15.89323318 13.12352135 14.40234375 13.96875 Z " fill="#455560" transform="translate(163,2)"/>
<path d="M0 0 C1.98 0 3.96 0 6 0 C6.33 1.32 6.66 2.64 7 4 C7.66 4 8.32 4 9 4 C9.33 2.68 9.66 1.36 10 0 C11.98 0 13.96 0 16 0 C16 5.61 16 11.22 16 17 C14.35 17 12.7 17 11 17 C10.67 15.35 10.34 13.7 10 12 C9.67 12.66 9.34 13.32 9 14 C8.34 14 7.68 14 7 14 C6.67 13.34 6.34 12.68 6 12 C5.67 13.65 5.34 15.3 5 17 C3.35 17 1.7 17 0 17 C0 11.39 0 5.78 0 0 Z " fill="#455560" transform="translate(33,83)"/>
<path d="M0 0 C5 0 5 0 6.8125 1.5 C7.204375 1.995 7.59625 2.49 8 3 C8.66 2.01 9.32 1.02 10 0 C11.65 0 13.3 0 15 0 C15 5.61 15 11.22 15 17 C13.35 17 11.7 17 10 17 C9.67 15.68 9.34 14.36 9 13 C8.01 13 7.02 13 6 13 C5.67 14.32 5.34 15.64 5 17 C3.35 17 1.7 17 0 17 C0 11.39 0 5.78 0 0 Z " fill="#455560" transform="translate(152,83)"/>
<path d="M0 0 C1.65 0 3.3 0 5 0 C5.66 0.99 6.32 1.98 7 3 C7.33 2.01 7.66 1.02 8 0 C9.65 0 11.3 0 13 0 C13 5.61 13 11.22 13 17 C11.35 17 9.7 17 8 17 C6.1875 14.5 6.1875 14.5 5 12 C4.67 13.65 4.34 15.3 4 17 C2.68 17 1.36 17 0 17 C0 11.39 0 5.78 0 0 Z " fill="#455560" transform="translate(67,83)"/>
<path d="M0 0 C3.96 0 7.92 0 12 0 C12 1.65 12 3.3 12 5 C11.67 5.33 11.34 5.66 11 6 C10.83333333 8.5 10.83333333 8.5 11 11 C11.33 11.33 11.66 11.66 12 12 C12 13.65 12 15.3 12 17 C8.04 17 4.08 17 0 17 C0 11.39 0 5.78 0 0 Z " fill="#455560" transform="translate(138,83)"/>
<path d="M0 0 C1.65 0 3.3 0 5 0 C5 1.98 5 3.96 5 6 C5.99 6 6.98 6 8 6 C8 4.02 8 2.04 8 0 C9.65 0 11.3 0 13 0 C13 5.61 13 11.22 13 17 C11.35 17 9.7 17 8 17 C8 15.02 8 13.04 8 11 C7.01 11 6.02 11 5 11 C5 12.98 5 14.96 5 17 C3.35 17 1.7 17 0 17 C0 11.39 0 5.78 0 0 Z " fill="#455560" transform="translate(2,83)"/>
<path d="M0 0 C0.66 0.33 1.32 0.66 2 1 C1.835 1.61875 1.67 2.2375 1.5 2.875 C0.92365356 4.96063386 0.92365356 4.96063386 1 7 C1.33 7.33 1.66 7.66 2 8 C2.1875 11.4375 2.1875 11.4375 2 15 C0 17 0 17 -1.9453125 17.1953125 C-3.96354167 17.13020833 -5.98177083 17.06510417 -8 17 C-9.0625 15.125 -9.0625 15.125 -10 13 C-9.67 12.34 -9.34 11.68 -9 11 C-7.35 11.33 -5.7 11.66 -4 12 C-5.02633882 10.82738274 -5.02633882 10.82738274 -7 10.3125 C-9 9 -9 9 -9.9375 6.0625 C-10 3 -10 3 -9 1.125 C-5.98059311 -0.57341637 -3.39373504 -0.24681709 0 0 Z M-4 4 C-4 4.66 -4 5.32 -4 6 C-3.01 5.67 -2.02 5.34 -1 5 C-1.99 4.67 -2.98 4.34 -4 4 Z " fill="#455560" transform="translate(120,83)"/>
<path d="M0 0 C1.32 0 2.64 0 4 0 C4.33 3.96 4.66 7.92 5 12 C5.99 12 6.98 12 8 12 C8 8.04 8 4.08 8 0 C9.65 0 11.3 0 13 0 C13.08126087 2.08268593 13.13930839 4.16628658 13.1875 6.25 C13.22230469 7.41015625 13.25710937 8.5703125 13.29296875 9.765625 C12.97621805 13.26255272 12.56930908 14.63807909 10 17 C7.16431142 17.66259654 4.95760774 17.28167693 2 17 C0 15 0 15 -0.1953125 11.5234375 C-0.18201493 10.14049032 -0.15816232 8.75761346 -0.125 7.375 C-0.11597656 6.66859375 -0.10695313 5.9621875 -0.09765625 5.234375 C-0.07407603 3.48943902 -0.03820461 1.74467705 0 0 Z " fill="#455560" transform="translate(18,83)"/>
<path d="M0 0 C0.625 1.875 0.625 1.875 1 4 C0.34 4.66 -0.32 5.32 -1 6 C-0.34 6.66 0.32 7.32 1 8 C1.25 11.5 1.25 11.5 1 15 C-1 17 -1 17 -2.9453125 17.1953125 C-4.96354167 17.13020833 -6.98177083 17.06510417 -9 17 C-10.0625 15.125 -10.0625 15.125 -11 13 C-10.67 12.34 -10.34 11.68 -10 11 C-8.35 11.33 -6.7 11.66 -5 12 C-6.03103522 10.83103046 -6.03103522 10.83103046 -8 10.25 C-10 9 -10 9 -10.8125 6.5625 C-11 4 -11 4 -10 1 C-6.78548731 -0.60725635 -3.56387464 -0.05748185 0 0 Z M-5 4 C-5 4.66 -5 5.32 -5 6 C-4.01 5.67 -3.02 5.34 -2 5 C-2.99 4.67 -3.98 4.34 -5 4 Z " fill="#455560" transform="translate(180,83)"/>
<path d="M0 0 C1.65 0 3.3 0 5 0 C7.45417612 5.673142 9.46246904 10.81839396 10 17 C8.35 17 6.7 17 5 17 C5 16.01 5 15.02 5 14 C3.02463255 14.34786708 3.02463255 14.34786708 1 15 C0.67 15.66 0.34 16.32 0 17 C-1.65 17 -3.3 17 -5 17 C-3.83348574 11.07136283 -2.24480642 5.61201606 0 0 Z M2 8 C3 10 3 10 3 10 Z " fill="#455560" transform="translate(55,83)"/>
<path d="M0 0 C0.625 1.875 0.625 1.875 1 4 C0.34 4.66 -0.32 5.32 -1 6 C-0.34 6.66 0.32 7.32 1 8 C1.25 11.5 1.25 11.5 1 15 C-1 17 -1 17 -2.9453125 17.1953125 C-4.96354167 17.13020833 -6.98177083 17.06510417 -9 17 C-10.0625 15.125 -10.0625 15.125 -11 13 C-10.67 12.34 -10.34 11.68 -10 11 C-8.35 11.33 -6.7 11.66 -5 12 C-6.03103522 10.83103046 -6.03103522 10.83103046 -8 10.25 C-10 9 -10 9 -10.8125 6.5625 C-11 4 -11 4 -10 1 C-6.78548731 -0.60725635 -3.56387464 -0.05748185 0 0 Z M-5 4 C-5 4.66 -5 5.32 -5 6 C-4.01 5.67 -3.02 5.34 -2 5 C-2.99 4.67 -3.98 4.34 -5 4 Z " fill="#455560" transform="translate(93,83)"/>
<path d="M0 0 C1.98 0 3.96 0 6 0 C6.33 0.99 6.66 1.98 7 3 C7.66 2.01 8.32 1.02 9 0 C12.125 -0.1875 12.125 -0.1875 15 0 C14.72285156 0.556875 14.44570312 1.11375 14.16015625 1.6875 C11.68683764 6.89819259 10.41838796 11.24716553 10 17 C8.35 17 6.7 17 5 17 C4.89042969 16.41992188 4.78085938 15.83984375 4.66796875 15.2421875 C3.68125712 10.38082776 2.36364178 6.40496877 0 2 C0 1.34 0 0.68 0 0 Z " fill="#455560" transform="translate(95,83)"/>
<path d="M0 0 C3.96 0 7.92 0 12 0 C12 1.65 12 3.3 12 5 C10.68 5 9.36 5 8 5 C8 8.96 8 12.92 8 17 C6.68 17 5.36 17 4 17 C4 13.04 4 9.08 4 5 C2.68 5 1.36 5 0 5 C0 3.35 0 1.7 0 0 Z " fill="#455560" transform="translate(124,83)"/>
<path d="M0 0 C3.625 0.3125 3.625 0.3125 5.6875 2 C6.625 4.3125 6.625 4.3125 5.875 7 C4.625 9.3125 4.625 9.3125 3.625 10.3125 C-1.59348739 10.76628151 -1.59348739 10.76628151 -4.3125 9.1875 C-5.91443488 6.36055609 -5.17084319 4.36323223 -4.375 1.3125 C-3.375 0.3125 -3.375 0.3125 0 0 Z M-1.375 2.3125 C-2.035 3.6325 -2.695 4.9525 -3.375 6.3125 C-2.715 6.9725 -2.055 7.6325 -1.375 8.3125 C1.22780568 7.99208603 1.22780568 7.99208603 3.625 7.3125 C3.295 5.6625 2.965 4.0125 2.625 2.3125 C1.305 2.3125 -0.015 2.3125 -1.375 2.3125 Z " fill="#455560" transform="translate(97.375,104.6875)"/>
<path d="M0 0 C2.64 0 5.28 0 8 0 C8.74010154 3.42296964 9 6.50130105 9 10 C5.73045798 9.43628586 4.17424117 8.50037734 2 6 C2 7.32 2 8.64 2 10 C1.34 10 0.68 10 0 10 C0 6.7 0 3.4 0 0 Z M2 2 C2 2.99 2 3.98 2 5 C3.32 4.67 4.64 4.34 6 4 C6 3.34 6 2.68 6 2 C4.68 2 3.36 2 2 2 Z " fill="#455560" transform="translate(110,105)"/>
<path d="M0 0 C3.5625 0.1875 3.5625 0.1875 5.5625 2.1875 C5.8125 5.1875 5.8125 5.1875 5.5625 8.1875 C3.5625 10.1875 3.5625 10.1875 0.0625 10.5 C-1.67 10.3453125 -1.67 10.3453125 -3.4375 10.1875 C-5.4375 7.1875 -5.4375 7.1875 -5.125 4.0625 C-4.20842511 0.22955046 -4.20842511 0.22955046 0 0 Z M-1.4375 2.1875 C-2.0975 3.5075 -2.7575 4.8275 -3.4375 6.1875 C-2.7775 6.8475 -2.1175 7.5075 -1.4375 8.1875 C1.16530568 7.86708603 1.16530568 7.86708603 3.5625 7.1875 C3.2325 5.5375 2.9025 3.8875 2.5625 2.1875 C1.2425 2.1875 -0.0775 2.1875 -1.4375 2.1875 Z " fill="#455560" transform="translate(48.4375,104.8125)"/>
<path d="M0 0 C6.36 -0.36 6.36 -0.36 9 1.125 C10.52480785 3.98401472 9.8570682 5.96729714 9 9 C6.04335481 10.4783226 3.25770263 10.06032783 0 10 C0 6.7 0 3.4 0 0 Z M2 2 C2 3.98 2 5.96 2 8 C3.65 7.67 5.3 7.34 7 7 C7 5.68 7 4.36 7 3 C5.35 2.67 3.7 2.34 2 2 Z " fill="#455560" transform="translate(171,105)"/>
<path d="M0 0 C2.64 0 5.28 0 8 0 C9 5 9 5 10 10 C6.64404172 9.40072174 4.62198774 8.15377564 2 6 C2 7.32 2 8.64 2 10 C1.34 10 0.68 10 0 10 C0 6.7 0 3.4 0 0 Z M2 2 C2 2.99 2 3.98 2 5 C3.65 4.67 5.3 4.34 7 4 C7 3.34 7 2.68 7 2 C5.35 2 3.7 2 2 2 Z " fill="#455560" transform="translate(61,105)"/>
<path d="M0 0 C4 2 4 2 6 4 C6.33 2.68 6.66 1.36 7 0 C7.66 0 8.32 0 9 0 C9 3.3 9 6.6 9 10 C5 8 5 8 3 6 C2.67 7.32 2.34 8.64 2 10 C1.34 10 0.68 10 0 10 C0 6.7 0 3.4 0 0 Z " fill="#455560" transform="translate(12,105)"/>
<path d="M0 0 C2.64 0 5.28 0 8 0 C8 0.66 8 1.32 8 2 C6.02 2 4.04 2 2 2 C2 2.66 2 3.32 2 4 C3.65 4 5.3 4 7 4 C7 4.66 7 5.32 7 6 C5.35 6 3.7 6 2 6 C2 6.66 2 7.32 2 8 C3.98 8 5.96 8 8 8 C8 8.66 8 9.32 8 10 C5.36 10 2.72 10 0 10 C0 6.7 0 3.4 0 0 Z " fill="#455560" transform="translate(156,105)"/>
<path d="M0 0 C3 1 3 1 4.16796875 3.06640625 C4.50441406 3.89011719 4.84085938 4.71382813 5.1875 5.5625 C5.53167969 6.38878906 5.87585938 7.21507813 6.23046875 8.06640625 C6.48441406 8.70449219 6.73835937 9.34257813 7 10 C6.01 10 5.02 10 4 10 C4 9.34 4 8.68 4 8 C2.02 8 0.04 8 -2 8 C-2 8.66 -2 9.32 -2 10 C-2.99 9.67 -3.98 9.34 -5 9 C-3.35 6.03 -1.7 3.06 0 0 Z M0 4 C0 4.66 0 5.32 0 6 C0.66 6 1.32 6 2 6 C2 5.34 2 4.68 2 4 C1.34 4 0.68 4 0 4 Z " fill="#455560" transform="translate(129,105)"/>
<path d="M0 0 C1.670625 0.061875 1.670625 0.061875 3.375 0.125 C3.375 1.115 3.375 2.105 3.375 3.125 C1.395 3.125 -0.585 3.125 -2.625 3.125 C-2.625 4.445 -2.625 5.765 -2.625 7.125 C-0.315 7.125 1.995 7.125 4.375 7.125 C4.045 8.115 3.715 9.105 3.375 10.125 C-0 10.25 -0 10.25 -3.625 10.125 C-5.625 8.125 -5.625 8.125 -5.875 5.125 C-5.4955869 0.57204274 -4.51633162 0.15573557 0 0 Z " fill="#455560" transform="translate(33.625,104.875)"/>
<path d="M0 0 C2.33294775 -0.04241723 4.66702567 -0.04092937 7 0 C8 1 8 1 8.0625 3.5625 C8.041875 4.366875 8.02125 5.17125 8 6 C6.02 6.33 4.04 6.66 2 7 C2 7.99 2 8.98 2 10 C1.34 10 0.68 10 0 10 C0 6.7 0 3.4 0 0 Z M2 2 C2 2.99 2 3.98 2 5 C3.32 4.67 4.64 4.34 6 4 C6 3.34 6 2.68 6 2 C4.68 2 3.36 2 2 2 Z " fill="#455560" transform="translate(78,105)"/>
<path d="M0 0 C2.97 0 5.94 0 9 0 C9 0.66 9 1.32 9 2 C8.01 2 7.02 2 6 2 C6 4.64 6 7.28 6 10 C5.01 10 4.02 10 3 10 C3 7.36 3 4.72 3 2 C2.01 2 1.02 2 0 2 C0 1.34 0 0.68 0 0 Z " fill="#455560" transform="translate(140,105)"/>
<path d="M0 0 C-0.33 1.65 -0.66 3.3 -1 5 C-2.65 4.67 -4.3 4.34 -6 4 C-6 2.68 -6 1.36 -6 0 C-3.50907189 -1.24546405 -2.58919267 -0.7767578 0 0 Z " fill="#820024" transform="translate(157,3)"/>
<path d="M0 0 C2.125 0.375 2.125 0.375 4 1 C3.67 2.65 3.34 4.3 3 6 C1.68 6 0.36 6 -1 6 C-1.625 4.125 -1.625 4.125 -2 2 C-1.34 1.34 -0.68 0.68 0 0 Z " fill="#455560" transform="translate(184,83)"/>
<path d="M0 0 C0.66 0 1.32 0 2 0 C2 3.3 2 6.6 2 10 C1.34 10 0.68 10 0 10 C0 6.7 0 3.4 0 0 Z " fill="#455560" transform="translate(2,105)"/>
</svg>
