<?xml version="1.0" encoding="UTF-8"?>
<svg version="1.1" xmlns="http://www.w3.org/2000/svg" width="200" height="200">
<path d="M0 0 C66 0 132 0 200 0 C200 66 200 132 200 200 C134 200 68 200 0 200 C0 134 0 68 0 0 Z " fill="#0F8E41" transform="translate(0,0)"/>
<path d="M0 0 C1.89766656 0.05031876 3.79546433 0.09591784 5.69335938 0.13671875 C10.28077005 0.23674951 14.84939481 0.43231243 19.4375 0.625 C19.4375 12.505 19.4375 24.385 19.4375 36.625 C32.3075 36.625 45.1775 36.625 58.4375 36.625 C58.4375 63.355 58.4375 90.085 58.4375 117.625 C54.8075 119.605 51.1775 121.585 47.4375 123.625 C44.6419239 125.47215499 44.6419239 125.47215499 41.8503418 127.32533264 C31.63569105 133.83581249 22.23314118 133.69567565 10.4375 133.1875 C8.58343258 133.14221947 6.72925659 133.10117916 4.875 133.06445312 C0.39085004 132.97436976 -4.0777759 132.79831233 -8.5625 132.625 C-8.5625 120.745 -8.5625 108.865 -8.5625 96.625 C-21.4325 96.625 -34.3025 96.625 -47.5625 96.625 C-47.92347928 76.90037888 -47.92347928 76.90037888 -48.00195312 68.48046875 C-48.05572089 62.73865751 -48.11926061 56.99814003 -48.24145508 51.25732422 C-48.33937924 46.62768035 -48.39308393 41.99942366 -48.41639519 37.36882401 C-48.4330023 35.60401185 -48.46543568 33.83927422 -48.51407051 32.07505417 C-48.8789963 18.28674048 -48.8789963 18.28674048 -45.7702179 14.36270142 C-43.43620674 12.79209726 -41.14921703 11.71947264 -38.5625 10.625 C-37.26098239 9.73883779 -35.97960264 8.82218209 -34.72290039 7.87353516 C-23.23511223 -0.00002301 -13.63779682 -0.63868802 0 0 Z " fill="#ECECE4" transform="translate(94.5625,34.375)"/>
<path d="M0 0 C12.21 0 24.42 0 37 0 C37 26.4 37 52.8 37 80 C29.08 84.455 29.08 84.455 21 89 C18.66808594 90.75183594 18.66808594 90.75183594 16.2890625 92.5390625 C8.74359225 97.1194506 -1.13538125 95.6120236 -9.625 95.375 C-11.50646766 95.34485762 -13.38798192 95.31748938 -15.26953125 95.29296875 C-19.84751812 95.22732253 -24.42323827 95.1240401 -29 95 C-31.68694018 62.75185459 -31.68694018 62.75185459 -27.50878906 55.36279297 C-23.10229485 51.12213456 -17.73142914 49.76100146 -12 48 C-8.37 46.02 -4.74 44.04 -1 42 C-0.67 28.14 -0.34 14.28 0 0 Z " fill="#F0EDE6" transform="translate(115,72)"/>
<path d="M0 0 C0 14.19 0 28.38 0 43 C-3.50625 44.918125 -7.0125 46.83625 -10.625 48.8125 C-11.71893066 49.41167236 -12.81286133 50.01084473 -13.93994141 50.62817383 C-14.81827637 51.10794678 -15.69661133 51.58771973 -16.6015625 52.08203125 C-17.49182129 52.56905518 -18.38208008 53.0560791 -19.29931641 53.55786133 C-22.173942 55.09288333 -25.07938376 56.55468863 -28 58 C-28.12362482 52.09187458 -28.2143513 46.18450226 -28.2746582 40.27539062 C-28.29979816 38.2654916 -28.33391529 36.25568395 -28.37719727 34.24609375 C-28.43787215 31.35654156 -28.46621447 28.46819808 -28.48828125 25.578125 C-28.51408768 24.68007141 -28.5398941 23.78201782 -28.56648254 22.85675049 C-28.56928516 16.61880457 -28.56928516 16.61880457 -25.78271484 13.58984375 C-24.405271 12.80287109 -24.405271 12.80287109 -23 12 C-22.18700439 11.48663086 -21.37400879 10.97326172 -20.53637695 10.44433594 C-19.69550537 9.96254883 -18.85463379 9.48076172 -17.98828125 8.984375 C-17.06595703 8.45585938 -16.14363281 7.92734375 -15.19335938 7.3828125 C-14.24267578 6.84398438 -13.29199219 6.30515625 -12.3125 5.75 C-10.86907227 4.91855469 -10.86907227 4.91855469 -9.39648438 4.0703125 C-8.47802734 3.54695313 -7.55957031 3.02359375 -6.61328125 2.484375 C-5.77579346 2.00709961 -4.93830566 1.52982422 -4.07543945 1.03808594 C-2 0 -2 0 0 0 Z " fill="#128F43" transform="translate(114,72)"/>
<path d="M0 0 C2.31 0.33 4.62 0.66 7 1 C5.35 2.32 3.7 3.64 2 5 C0.68 4.34 -0.64 3.68 -2 3 C-1.34 2.01 -0.68 1.02 0 0 Z " fill="#179247" transform="translate(51,43)"/>
<path d="M0 0 C0.66 0.33 1.32 0.66 2 1 C-0.05233685 3.2477975 -1.00667261 4.0022242 -4 5 C-5.66710346 6.49985609 -5.66710346 6.49985609 -7 8 C-7.66 7.67 -8.32 7.34 -9 7 C-6.25604436 4.05278838 -3.61662784 1.80831392 0 0 Z " fill="#D5E3D2" transform="translate(73,35)"/>
<path d="M0 0 C0.66 0.33 1.32 0.66 2 1 C2 1.66 2 2.32 2 3 C1.01 3.33 0.02 3.66 -1 4 C-1.33 4.66 -1.66 5.32 -2 6 C-3.65 5.67 -5.3 5.34 -7 5 C-4.702779 3.25728062 -2.40133271 1.60088848 0 0 Z " fill="#1F954E" transform="translate(145,155)"/>
<path d="M0 0 C0.66 0.33 1.32 0.66 2 1 C2 1.66 2 2.32 2 3 C0.35 3.66 -1.3 4.32 -3 5 C-3 3.68 -3 2.36 -3 1 C-2.01 0.67 -1.02 0.34 0 0 Z " fill="#E6EADF" transform="translate(129,161)"/>
</svg>
