<?xml version="1.0" encoding="UTF-8"?>
<svg version="1.1" xmlns="http://www.w3.org/2000/svg" width="256" height="256">
<path d="M0 0 C84.48 0 168.96 0 256 0 C256 84.48 256 168.96 256 256 C171.52 256 87.04 256 0 256 C0 171.52 0 87.04 0 0 Z " fill="#35383E" transform="translate(0,0)"/>
<path d="M0 0 C0.77163986 -0.00686325 1.54327972 -0.0137265 2.33830261 -0.02079773 C4.87790584 -0.03902889 7.41688859 -0.03523114 9.95654297 -0.02954102 C11.73526203 -0.03410696 13.51397933 -0.03941376 15.29269409 -0.04542542 C19.0199093 -0.05435111 22.74691024 -0.05194238 26.47412109 -0.04199219 C31.22161678 -0.03054609 35.96836381 -0.0506494 40.71576118 -0.07990932 C44.39125175 -0.09837647 48.06656675 -0.09795734 51.74209213 -0.0922718 C53.49056925 -0.09211964 55.23905908 -0.09807607 56.98749161 -0.11056328 C72.2728505 -0.2042987 84.23557848 1.89541627 96.07373047 12.40405273 C105.56953877 21.88365659 109.61525716 32.95130583 109.6781311 46.18482971 C109.66577514 47.70135578 109.64490713 49.2178353 109.61572266 50.73413086 C109.57364311 53.03382711 109.57469476 55.33059561 109.58154297 57.63061523 C109.51698617 72.86130634 106.46653355 84.75976606 95.94873047 96.15405273 C84.60380065 106.94510551 71.3535441 108.69255508 56.37059784 108.67844772 C54.0725968 108.6774698 51.77504762 108.69057302 49.47711182 108.70742798 C42.9496202 108.75331233 36.42217899 108.77827223 29.89453125 108.78491211 C25.88334472 108.78997269 21.87263455 108.81444595 17.86161041 108.8502388 C16.34845105 108.85992893 14.83522527 108.86242882 13.32204437 108.85706711 C0.89735323 108.8151081 -11.15985338 109.96942061 -20.92626953 118.40405273 C-21.42126953 119.39405273 -21.42126953 119.39405273 -21.92626953 120.40405273 C-22.58626953 120.40405273 -23.24626953 120.40405273 -23.92626953 120.40405273 C-23.99585073 107.37348835 -24.04912218 94.34296835 -24.08170605 81.31225586 C-24.09734647 75.26124498 -24.11855539 69.21036143 -24.15258789 63.15942383 C-24.18523879 57.31742098 -24.20313476 51.47554044 -24.21090126 45.63345337 C-24.21643444 43.40717647 -24.22723939 41.18090608 -24.2434597 38.9546814 C-24.26530979 35.83088841 -24.26823324 32.70759763 -24.2668457 29.58374023 C-24.27763153 28.66807785 -24.28841736 27.75241547 -24.29953003 26.80900574 C-24.26350909 19.29012871 -22.80133933 12.85154403 -17.61376953 7.09155273 C-17.06076172 6.45604492 -16.50775391 5.82053711 -15.93798828 5.16577148 C-11.05238071 0.88730738 -6.32125872 -0.0396885 0 0 Z " fill="#79D87C" transform="translate(90.92626953125,67.595947265625)"/>
</svg>
