<?xml version="1.0" encoding="UTF-8"?>
<svg version="1.1" xmlns="http://www.w3.org/2000/svg" width="270" height="270">
<path d="M0 0 C89.1 0 178.2 0 270 0 C270 89.1 270 178.2 270 270 C180.9 270 91.8 270 0 270 C0 180.9 0 91.8 0 0 Z " fill="#2C3CB8" transform="translate(0,0)"/>
<path d="M0 0 C0 0.66 0 1.32 0 2 C0.87527344 2.27199219 1.75054687 2.54398438 2.65234375 2.82421875 C19.29232824 8.6686007 30.87096229 21.83006349 39 37 C39.35578125 37.61746094 39.7115625 38.23492187 40.078125 38.87109375 C41.49022068 42.13207741 42.24164925 45.5542995 43.0625 49 C43.23587891 49.7115625 43.40925781 50.423125 43.58789062 51.15625 C44.06195187 53.10335213 44.53117366 55.05163078 45 57 C45.17869629 57.64453125 45.35739258 58.2890625 45.54150391 58.953125 C48.73873436 73.22659683 45.37891883 89.09212876 42 103 C41.34 103 40.68 103 40 103 C39.89042969 103.66386719 39.78085938 104.32773438 39.66796875 105.01171875 C38.77553135 109.98179693 37.86693301 113.76192512 35 118 C34.30420546 120.19130534 34.30420546 120.19130534 34 122 C33.34 122 32.68 122 32 122 C31.814375 122.78375 31.62875 123.5675 31.4375 124.375 C28.10270699 132.78447802 21.648728 140.0027018 16 147 C15.46890625 147.66773438 14.9378125 148.33546875 14.390625 149.0234375 C7.0274427 157.89431903 -2.44277581 164.66621829 -12 171 C-12.97453125 171.66 -13.9490625 172.32 -14.953125 173 C-37.74149209 187.81805151 -66.91562664 193.60397333 -93.5625 188.25 C-100.31204719 186.80229152 -106.83748476 185.19330335 -113 182 C-114.21816406 181.37158203 -114.21816406 181.37158203 -115.4609375 180.73046875 C-130.40008473 172.38752961 -143.58417671 158.08980982 -149.125 141.8125 C-149.38361816 141.05638428 -149.64223633 140.30026855 -149.90869141 139.52124023 C-157.9889466 115.30890805 -154.3313657 88.42356218 -143.37109375 65.609375 C-126.78032654 33.68977813 -99.23418732 9.82611037 -65.125 -1.3515625 C-60.7981534 -2.67188701 -56.48598642 -3.48532869 -52 -4 C-50.84757812 -4.17015625 -49.69515625 -4.3403125 -48.5078125 -4.515625 C-32.00025207 -6.54655399 -15.5421367 -6.13793833 0 0 Z " fill="#8CFB3F" transform="translate(189,43)"/>
<path d="M0 0 C7.92 0 15.84 0 24 0 C23.67 1.32 23.34 2.64 23 4 C22.34 4 21.68 4 21 4 C20.63648438 5.24330078 20.63648438 5.24330078 20.265625 6.51171875 C18.79893405 10.5541725 16.87608574 14.08679185 14.75 17.8125 C14.31526367 18.58456787 13.88052734 19.35663574 13.43261719 20.15209961 C12.47396535 21.85445817 11.51325486 23.55565863 10.55078125 25.25585938 C7.76694452 30.18191808 5.01152982 35.1239135 2.25 40.0625 C-1.45567886 46.68507824 -5.16905295 53.30309757 -8.90234375 59.91015625 C-9.85318848 61.59709595 -9.85318848 61.59709595 -10.82324219 63.31811523 C-12.03581403 65.46901697 -13.2511616 67.61835705 -14.46972656 69.76586914 C-17.27954917 74.75630832 -19.88886039 79.67366189 -22 85 C-22.66 85 -23.32 85 -24 85 C-24.22558594 85.81210938 -24.45117188 86.62421875 -24.68359375 87.4609375 C-26.3219621 91.8655717 -28.61135248 95.63105099 -31.0625 99.625 C-31.97476637 101.11431004 -32.88249757 102.60640979 -33.78515625 104.1015625 C-34.18613525 104.75463379 -34.58711426 105.40770508 -35.00024414 106.08056641 C-36.2299644 108.25953731 -36.2299644 108.25953731 -37 112 C-44.26 112 -51.52 112 -59 112 C-65.03613202 76.1348272 -65.03613202 76.1348272 -66.875 64.1875 C-66.99464111 63.43307617 -67.11428223 62.67865234 -67.23754883 61.90136719 C-67.89397075 57.53734895 -68.10344877 53.39657279 -68 49 C-65.39688008 48.32900016 -62.79264602 47.66304662 -60.1875 47 C-59.08051758 46.71382812 -59.08051758 46.71382812 -57.95117188 46.421875 C-54.89464659 45.64737086 -52.16626522 45 -49 45 C-48.13199416 47.60401752 -47.78696792 49.51654259 -47.5703125 52.2109375 C-47.46275635 53.45182129 -47.46275635 53.45182129 -47.35302734 54.71777344 C-47.27777832 55.5946582 -47.2025293 56.47154297 -47.125 57.375 C-46.38337269 65.47585216 -45.15154378 73.13969339 -43 81 C-42.34 79.35 -41.68 77.7 -41 76 C-40.34 76 -39.68 76 -39 76 C-38.88785156 75.28457031 -38.77570313 74.56914062 -38.66015625 73.83203125 C-37.95543995 70.80884002 -36.86712202 68.43677312 -35.4375 65.6875 C-34.98246094 64.80449219 -34.52742188 63.92148438 -34.05859375 63.01171875 C-33.70925781 62.34785156 -33.35992187 61.68398437 -33 61 C-32.34 61 -31.68 61 -31 61 C-30.88785156 60.28457031 -30.77570313 59.56914062 -30.66015625 58.83203125 C-29.95543995 55.80884002 -28.86712202 53.43677312 -27.4375 50.6875 C-26.98246094 49.80449219 -26.52742188 48.92148438 -26.05859375 48.01171875 C-25.70925781 47.34785156 -25.35992187 46.68398437 -25 46 C-24.34 46 -23.68 46 -23 46 C-22.6596875 44.576875 -22.6596875 44.576875 -22.3125 43.125 C-20.89994419 38.10372496 -18.42276633 33.59585827 -16 29 C-15.34 29 -14.68 29 -14 29 C-13.89816406 28.30519531 -13.79632813 27.61039063 -13.69140625 26.89453125 C-12.88282994 23.50947448 -11.53324287 20.77712981 -9.9375 17.6875 C-9.38964844 16.61886719 -8.84179688 15.55023438 -8.27734375 14.44921875 C-7.64505859 13.23685547 -7.64505859 13.23685547 -7 12 C-6.34 12 -5.68 12 -5 12 C-4.9175 11.319375 -4.835 10.63875 -4.75 9.9375 C-4 7 -4 7 0 0 Z " fill="#2E41B5" transform="translate(161,82)"/>
<path d="M0 0 C0.66 0.33 1.32 0.66 2 1 C-4.6 7.6 -11.2 14.2 -18 21 C-18.66 20.67 -19.32 20.34 -20 20 C-13.76332984 12.76238278 -7.16527521 6.29472776 0 0 Z " fill="#79D656" transform="translate(82,64)"/>
</svg>
