<?xml version="1.0" encoding="UTF-8"?>
<svg version="1.1" xmlns="http://www.w3.org/2000/svg" width="340" height="340">
<path d="M0 0 C112.2 0 224.4 0 340 0 C340 112.2 340 224.4 340 340 C227.8 340 115.6 340 0 340 C0 227.8 0 115.6 0 0 Z " fill="#FDFEFE" transform="translate(0,0)"/>
<path d="M0 0 C12.08869676 10.3696619 21.6626227 22.28680812 27.5546875 37.19140625 C27.2246875 38.18140625 26.8946875 39.17140625 26.5546875 40.19140625 C25.8121875 39.57265625 25.0696875 38.95390625 24.3046875 38.31640625 C20.67879951 35.51458371 18.04191881 33.96015115 13.42871094 33.87255859 C12.21127197 33.84246704 12.21127197 33.84246704 10.96923828 33.81176758 C10.12603027 33.80040771 9.28282227 33.78904785 8.4140625 33.77734375 C7.6317627 33.75969971 6.84946289 33.74205566 6.04345703 33.72387695 C3.13074011 33.660974 0.2176837 33.61467405 -2.6953125 33.56640625 C-12.4715625 33.38078125 -12.4715625 33.38078125 -22.4453125 33.19140625 C-22.4453125 56.62140625 -22.4453125 80.05140625 -22.4453125 104.19140625 C-17.8253125 104.19140625 -13.2053125 104.19140625 -8.4453125 104.19140625 C-8.4453125 95.28140625 -8.4453125 86.37140625 -8.4453125 77.19140625 C3.6796875 76.87890625 3.6796875 76.87890625 7.46923828 76.8034668 C14.74263299 76.56266083 19.46525996 75.7659292 25.1796875 71.00390625 C28.01411111 67.64735198 29.78071181 64.18532918 31.5546875 60.19140625 C31.8846875 60.19140625 32.2146875 60.19140625 32.5546875 60.19140625 C33.65263373 84.55971287 27.10274611 107.14657025 10.578125 125.57421875 C-4.9046257 142.14956011 -25.56471377 152.29570187 -48.390625 153.5078125 C-72.78966019 154.302701 -93.55066847 146.51522655 -112.0078125 130.50390625 C-127.69159262 115.80309285 -137.91128862 94.44981383 -138.68359375 72.94140625 C-139.17338319 47.467943 -131.98591596 25.66468706 -114.16015625 6.8203125 C-83.01431565 -23.3396166 -34.39709122 -26.71263467 0 0 Z " fill="#20AAAF" transform="translate(148.4453125,101.80859375)"/>
<path d="M0 0 C4.29 0 8.58 0 13 0 C13.33 7.92 13.66 15.84 14 24 C16.97 21.525 16.97 21.525 20 19 C25.23427725 17.25524092 31.11593927 16.87545867 36.32421875 18.90625 C42.41969339 22.5287035 46.70072414 27.220084 49 34 C50.7478304 44.62793647 50.68983407 55.26406493 44.35546875 64.34765625 C40.66178049 68.85033676 36.51908271 71.60432801 30.70703125 72.2578125 C23.58777294 72.58092559 19.41334408 71.08302046 14.0625 66.25 C13.711875 65.8375 13.36125 65.425 13 65 C12.67 66.98 12.34 68.96 12 71 C8.04 71 4.08 71 0 71 C0 47.57 0 24.14 0 0 Z " fill="#3C3939" transform="translate(279,135)"/>
<path d="M0 0 C4.95 0 9.9 0 15 0 C18.74968946 10.03879397 22.39883413 20.08110687 25.734375 30.265625 C27.9851446 36.90678469 30.49573231 43.45103878 33 50 C33.57578939 48.27263184 34.15156612 46.54525945 34.72729492 44.81787109 C35.25070066 43.24781925 35.77430698 41.67783427 36.2980957 40.10791016 C37.89484484 35.32088663 39.48704825 30.53239609 41.07421875 25.7421875 C41.42484375 24.68580078 41.77546875 23.62941406 42.13671875 22.54101562 C42.82414032 20.46980676 43.51038603 18.39820718 44.1953125 16.32617188 C46.01904181 10.83667341 47.92815784 5.40090123 50 0 C55.28 0 60.56 0 66 0 C62.19003605 11.73067849 58.08070317 23.30533738 53.76000977 34.85742188 C50.80347564 42.77728868 47.95041674 50.72480732 45.24438477 58.73388672 C44.86237915 59.84981201 44.86237915 59.84981201 44.47265625 60.98828125 C44.25875244 61.62290283 44.04484863 62.25752441 43.82446289 62.91137695 C42.72941837 65.68546813 41.33376942 68.33246116 40 71 C34.72 71 29.44 71 24 71 C16.0886436 48.34126081 16.0886436 48.34126081 13.6875 41.0625 C11.90022789 35.65405917 9.9178137 30.34724651 7.84375 25.04296875 C0 4.8835747 0 4.8835747 0 0 Z " fill="#FAFDFD" transform="translate(25,135)"/>
<path d="M0 0 C3.41484054 2.32830037 5.55379781 4.12675949 7 8 C7.2124904 10.65522653 7.32452866 13.21486228 7.34375 15.87109375 C7.3583728 16.63043716 7.37299561 17.38978058 7.38806152 18.1721344 C7.43445665 20.59386982 7.46871144 23.01552515 7.5 25.4375 C7.5412553 28.62399618 7.59497066 31.8099267 7.65625 34.99609375 C7.6615271 35.72332138 7.6668042 36.45054901 7.67224121 37.19981384 C7.75159013 41.26617807 8.34565823 44.30208386 10 48 C10 48.99 10 49.98 10 51 C5.71 51 1.42 51 -3 51 C-3.495 48.03 -3.495 48.03 -4 45 C-4.66 45 -5.32 45 -6 45 C-6 45.66 -6 46.32 -6 47 C-12.79272186 51.80293465 -18.72015669 53.26382772 -27 52 C-31.881441 49.73361668 -34.70028068 46.86479088 -37 42 C-37.63954548 37.1135851 -37.6472895 32.6901448 -35.875 28.0625 C-30.70184412 22.37202853 -24.9054435 20.90134168 -17.625 19.25 C-16.69816406 19.02957031 -15.77132812 18.80914062 -14.81640625 18.58203125 C-12.54658245 18.04382561 -10.27476454 17.51684692 -8 17 C-7.83318891 14.08347826 -7.83318891 14.08347826 -8 11 C-10.41486943 8.58513057 -11.12707789 8.7038075 -14.4375 8.6875 C-15.21996094 8.67074219 -16.00242188 8.65398437 -16.80859375 8.63671875 C-19.51925408 9.08607955 -20.34720635 9.84176487 -22 12 C-22.33 12.99 -22.66 13.98 -23 15 C-24.43791516 14.85831863 -25.8753237 14.71148957 -27.3125 14.5625 C-28.11300781 14.48128906 -28.91351563 14.40007812 -29.73828125 14.31640625 C-32 14 -32 14 -35 13 C-34.39834212 7.88590801 -32.46828399 4.11660237 -28.51953125 0.73046875 C-20.73491728 -4.13276691 -8.22166756 -3.35578268 0 0 Z " fill="#3E3B3B" transform="translate(257,155)"/>
<path d="M0 0 C4.62 0 9.24 0 14 0 C14 23.43 14 46.86 14 71 C9.38 71 4.76 71 0 71 C0 47.57 0 24.14 0 0 Z " fill="#FEFEFE" transform="translate(98,135)"/>
<path d="M0 0 C4.29 0 8.58 0 13 0 C13 23.43 13 46.86 13 71 C8.71 71 4.42 71 0 71 C0 47.57 0 24.14 0 0 Z " fill="#393636" transform="translate(196,135)"/>
<path d="M0 0 C3.54403863 2.11657862 6.48276783 4.24616678 7.6796875 8.3046875 C9.53343675 23.9033092 9.53343675 23.9033092 5 30 C2.13824342 33.02074305 0.64397013 33.90800427 -3.5 34.5 C-7.67215733 33.90397752 -9.15298855 33.0842624 -12 30 C-15.85461087 23.75287204 -15.675517 17.18083821 -15 10 C-12.55022608 2.65067825 -7.91257922 -1.3642378 0 0 Z " fill="#FAFAFA" transform="translate(307,163)"/>
<path d="M0 0 C3.031875 -0.061875 6.06375 -0.12375 9.1875 -0.1875 C10.60712036 -0.22846802 10.60712036 -0.22846802 12.05541992 -0.27026367 C16.84936401 -0.3175874 20.15522761 -0.20273273 24 3 C26.4434877 6.66523155 26.84707648 9.73970357 26 14 C23.5625 16.9375 23.5625 16.9375 21 19 C20.67 19.33 20.34 19.66 20 20 C18.5112814 20.08669432 17.018555 20.10703494 15.52734375 20.09765625 C14.71773193 20.09515869 13.90812012 20.09266113 13.07397461 20.09008789 C12.03893799 20.08098389 11.00390137 20.07187988 9.9375 20.0625 C6.658125 20.041875 3.37875 20.02125 0 20 C0 13.4 0 6.8 0 0 Z " fill="#20AAAF" transform="translate(140,147)"/>
<path d="M0 0 C0.61325074 9.88015082 0.61325074 9.88015082 -1.4375 13.625 C-5.20394313 15.64601826 -8.73255675 16.31263321 -13 16 C-15.625 14.5 -15.625 14.5 -17 12 C-17.1875 8.4375 -17.1875 8.4375 -16 5 C-13.46005278 3.49676593 -11.76765557 2.74858494 -9 2 C-8.27167969 1.79632813 -7.54335937 1.59265625 -6.79296875 1.3828125 C-1.53638699 0 -1.53638699 0 0 0 Z " fill="#F6F5F5" transform="translate(250,181)"/>
<path d="M0 0 C4.29 0 8.58 0 13 0 C13 2.31 13 4.62 13 7 C8.71 7 4.42 7 0 7 C0 4.69 0 2.38 0 0 Z " fill="#6CC6CB" transform="translate(155,87)"/>
<path d="M0 0 C0 0.66 0 1.32 0 2 C0.78375 1.79375 1.5675 1.5875 2.375 1.375 C3.674375 1.189375 3.674375 1.189375 5 1 C5.66 1.66 6.32 2.32 7 3 C6.625 5.125 6.625 5.125 6 7 C3.39417629 7.93065133 2.35801776 8.14917407 -0.25 7.0625 C-1.11625 6.5365625 -1.11625 6.5365625 -2 6 C-2 6.66 -2 7.32 -2 8 C-2.99 8 -3.98 8 -5 8 C-5 5.69 -5 3.38 -5 1 C-2 0 -2 0 0 0 Z " fill="#70C7CB" transform="translate(273,86)"/>
<path d="M0 0 C0.66 0 1.32 0 2 0 C2 3.3 2 6.6 2 10 C0.00045254 10.04254356 -2.00041636 10.04080783 -4 10 C-5 9 -5 9 -5.0625 6.4375 C-5.041875 5.633125 -5.02125 4.82875 -5 4 C-3.35 3.67 -1.7 3.34 0 3 C0 2.01 0 1.02 0 0 Z " fill="#6AC8CD" transform="translate(211,84)"/>
<path d="M0 0 C1.98 0 3.96 0 6 0 C6.144375 0.7425 6.28875 1.485 6.4375 2.25 C6.90187492 4.52027739 7.41863569 6.75759479 8 9 C6 8 4 7 2 6 C2 6.99 2 7.98 2 9 C1.34 9 0.68 9 0 9 C0 6.03 0 3.06 0 0 Z " fill="#27AEB4" transform="translate(228,100)"/>
<path d="M0 0 C1.65 0 3.3 0 5 0 C5.66 0.66 6.32 1.32 7 2 C6.625 4.625 6.625 4.625 6 7 C4.68 7 3.36 7 2 7 C2 7.99 2 8.98 2 10 C1.34 10 0.68 10 0 10 C0 6.7 0 3.4 0 0 Z " fill="#6BC6C9" transform="translate(322,102)"/>
<path d="M0 0 C0.78375 0.04125 1.5675 0.0825 2.375 0.125 C2.705 1.115 3.035 2.105 3.375 3.125 C0.405 2.63 0.405 2.63 -2.625 2.125 C-2.625 3.775 -2.625 5.425 -2.625 7.125 C-1.965 6.795 -1.305 6.465 -0.625 6.125 C-0.625 5.465 -0.625 4.805 -0.625 4.125 C1.025 4.125 2.675 4.125 4.375 4.125 C4.375 5.445 4.375 6.765 4.375 8.125 C1 8.75 1 8.75 -2.625 9.125 C-4.625 7.125 -4.625 7.125 -4.875 4.625 C-4.51649553 1.03995533 -3.59522993 0.17120143 0 0 Z " fill="#32AFB5" transform="translate(295.625,99.875)"/>
<path d="M0 0 C1.2065625 0.0309375 1.2065625 0.0309375 2.4375 0.0625 C2.4375 2.7025 2.4375 5.3425 2.4375 8.0625 C0.7875 8.3925 -0.8625 8.7225 -2.5625 9.0625 C-1.5725 8.7325 -0.5825 8.4025 0.4375 8.0625 C-0.8825 7.4025 -2.2025 6.7425 -3.5625 6.0625 C-3.605221 4.39638095 -3.60313832 2.72867115 -3.5625 1.0625 C-2.5625 0.0625 -2.5625 0.0625 0 0 Z " fill="#59C1C6" transform="translate(243.5625,86.9375)"/>
<path d="M0 0 C3.3 0 6.6 0 10 0 C10.66 1.32 11.32 2.64 12 4 C11.01 5.485 11.01 5.485 10 7 C8.0625 6.6875 8.0625 6.6875 6 6 C5.67 5.01 5.34 4.02 5 3 C2.49552484 1.78130071 2.49552484 1.78130071 0 1 C0 0.67 0 0.34 0 0 Z " fill="#61C2C6" transform="translate(283,87)"/>
<path d="M0 0 C0.99 0.33 1.98 0.66 3 1 C3.33 1.99 3.66 2.98 4 4 C4.66 2.68 5.32 1.36 6 0 C7.65 0 9.3 0 11 0 C11 0.66 11 1.32 11 2 C10.01 2.33 9.02 2.66 8 3 C6.28432339 6.50294871 6.28432339 6.50294871 5 10 C4.34 10 3.68 10 3 10 C2.01 6.7 1.02 3.4 0 0 Z " fill="#64C4CA" transform="translate(146,84)"/>
<path d="M0 0 C3.3 0 6.6 0 10 0 C10 2.31 10 4.62 10 7 C9.67 7 9.34 7 9 7 C8.67 5.35 8.34 3.7 8 2 C7.67 2 7.34 2 7 2 C6.67 3.65 6.34 5.3 6 7 C5.34 7 4.68 7 4 7 C3.67 5.35 3.34 3.7 3 2 C2.67 3.65 2.34 5.3 2 7 C1.34 7 0.68 7 0 7 C0 4.69 0 2.38 0 0 Z " fill="#46B4B9" transform="translate(220,87)"/>
<path d="M0 0 C2.125 0.375 2.125 0.375 4 1 C4.38218767 2.65614657 4.71395102 4.32457024 5 6 C4 7 4 7 1.4375 7.0625 C0.2309375 7.0315625 0.2309375 7.0315625 -1 7 C-1.625 4.625 -1.625 4.625 -2 2 C-1.34 1.34 -0.68 0.68 0 0 Z " fill="#73C9CE" transform="translate(308,102)"/>
<path d="M0 0 C1.98 0 3.96 0 6 0 C6.09765625 6.15234375 6.09765625 6.15234375 6 8 C5 9 5 9 2.4375 9.0625 C1.633125 9.041875 0.82875 9.02125 0 9 C1.32 8.67 2.64 8.34 4 8 C3.65772428 5.02934491 3.65772428 5.02934491 3 2 C2.34 1.67 1.68 1.34 1 1 C1.33 2.98 1.66 4.96 2 7 C1.01 6.34 0.02 5.68 -1 5 C-0.67 3.35 -0.34 1.7 0 0 Z " fill="#3DB7BF" transform="translate(323,87)"/>
<path d="M0 0 C1.65 0.33 3.3 0.66 5 1 C5 2.98 5 4.96 5 7 C3.35 7 1.7 7 0 7 C-1.125 2.25 -1.125 2.25 0 0 Z " fill="#58BFC4" transform="translate(233,87)"/>
<path d="M0 0 C1.98 0 3.96 0 6 0 C6.5625 1.9375 6.5625 1.9375 7 4 C6 5 6 5 3.4375 5.0625 C2.2309375 5.0315625 2.2309375 5.0315625 1 5 C0.67 6.32 0.34 7.64 0 9 C0 6.03 0 3.06 0 0 Z " fill="#43B9BF" transform="translate(260,85)"/>
<path d="M0 0 C1.67542976 0.28604898 3.34385343 0.61781233 5 1 C5 2.65 5 4.3 5 6 C1.25 7.125 1.25 7.125 -1 6 C-1.042721 4.33388095 -1.04063832 2.66617115 -1 1 C-0.67 0.67 -0.34 0.34 0 0 Z " fill="#70C7CB" transform="translate(170,87)"/>
<path d="M0 0 C1.65 0 3.3 0 5 0 C5 2.31 5 4.62 5 7 C3.35 7 1.7 7 0 7 C-0.5625 5.0625 -0.5625 5.0625 -1 3 C-0.67 2.67 -0.34 2.34 0 2 C0 1.34 0 0.68 0 0 Z " fill="#51BBBF" transform="translate(191,87)"/>
<path d="M0 0 C0 1.98 0 3.96 0 6 C-0.66 6 -1.32 6 -2 6 C-2 6.66 -2 7.32 -2 8 C-2.99 8 -3.98 8 -5 8 C-5 5.69 -5 3.38 -5 1 C-2 0 -2 0 0 0 Z " fill="#93D6D8" transform="translate(273,86)"/>
<path d="M0 0 C2 0.25 2 0.25 4 1 C4.33 1.99 4.66 2.98 5 4 C4.01 5.485 4.01 5.485 3 7 C1.68 6.67 0.36 6.34 -1 6 C-1.042721 4.33388095 -1.04063832 2.66617115 -1 1 C-0.67 0.67 -0.34 0.34 0 0 Z " fill="#58C0C6" transform="translate(249,87)"/>
<path d="M0 0 C1.32 0.33 2.64 0.66 4 1 C4 2.98 4 4.96 4 7 C2.35 7 0.7 7 -1 7 C-1 3 -1 3 0 0 Z " fill="#4EBBBF" transform="translate(261,102)"/>
<path d="M0 0 C1.98 0 3.96 0 6 0 C6 2.31 6 4.62 6 7 C5.34 7 4.68 7 4 7 C3.67 5.35 3.34 3.7 3 2 C2.67 3.65 2.34 5.3 2 7 C1.34 7 0.68 7 0 7 C0 4.69 0 2.38 0 0 Z " fill="#45B7BC" transform="translate(177,87)"/>
<path d="M0 0 C1.98 0 3.96 0 6 0 C6 2.31 6 4.62 6 7 C5.34 7 4.68 7 4 7 C3.67 5.35 3.34 3.7 3 2 C2.67 3.65 2.34 5.3 2 7 C1.34 7 0.68 7 0 7 C0 4.69 0 2.38 0 0 Z " fill="#49B8BB" transform="translate(198,87)"/>
<path d="M0 0 C1.32 0.66 2.64 1.32 4 2 C4 2.66 4 3.32 4 4 C2.68 4 1.36 4 0 4 C0 4.66 0 5.32 0 6 C1.32 5.67 2.64 5.34 4 5 C3.67 5.66 3.34 6.32 3 7 C1.35 6.67 -0.3 6.34 -2 6 C-1.125 1.125 -1.125 1.125 0 0 Z " fill="#40B7BE" transform="translate(254,102)"/>
<path d="M0 0 C1.32 0.66 2.64 1.32 4 2 C4 2.66 4 3.32 4 4 C2.68 4 1.36 4 0 4 C0 4.66 0 5.32 0 6 C1.32 5.67 2.64 5.34 4 5 C3.67 5.66 3.34 6.32 3 7 C1.35 6.67 -0.3 6.34 -2 6 C-1.125 1.125 -1.125 1.125 0 0 Z " fill="#40B7BD" transform="translate(239,102)"/>
<path d="M0 0 C0.99 0.33 1.98 0.66 3 1 C3 1.66 3 2.32 3 3 C4.32 3.33 5.64 3.66 7 4 C7 4.66 7 5.32 7 6 C5.68 5.67 4.36 5.34 3 5 C3 5.66 3 6.32 3 7 C2.01 7 1.02 7 0 7 C0 4.69 0 2.38 0 0 Z " fill="#8BD1D6" transform="translate(155,87)"/>
<path d="M0 0 C1.65 0 3.3 0 5 0 C4.67 0.66 4.34 1.32 4 2 C4.33 2.33 4.66 2.66 5 3 C4.5625 5.0625 4.5625 5.0625 4 7 C2.68 6.67 1.36 6.34 0 6 C0 4.02 0 2.04 0 0 Z " fill="#4CBAC0" transform="translate(304,87)"/>
<path d="M0 0 C1.98 0 3.96 0 6 0 C6 2.31 6 4.62 6 7 C5.67 7 5.34 7 5 7 C4.67 5.35 4.34 3.7 4 2 C3.67 2 3.34 2 3 2 C2.67 3.65 2.34 5.3 2 7 C1.34 7 0.68 7 0 7 C0 4.69 0 2.38 0 0 Z " fill="#3DB3B7" transform="translate(314,87)"/>
<path d="M0 0 C1.32 0 2.64 0 4 0 C4.66 2.31 5.32 4.62 6 7 C3.53199953 5.84826645 1.95216435 4.95216435 0 3 C0 2.01 0 1.02 0 0 Z " fill="#72C8CC" transform="translate(230,102)"/>
<path d="M0 0 C0.99 0.33 1.98 0.66 3 1 C3 2.98 3 4.96 3 7 C1.35 7.33 -0.3 7.66 -2 8 C-1 5 -1 5 0 4 C0 2.68 0 1.36 0 0 Z " fill="#C8E7E4" transform="translate(324,88)"/>
<path d="M0 0 C1.65 0 3.3 0 5 0 C5 1.32 5 2.64 5 4 C4.01 4.33 3.02 4.66 2 5 C1.01 4.34 0.02 3.68 -1 3 C-0.67 2.01 -0.34 1.02 0 0 Z " fill="#5DC3C8" transform="translate(295,104)"/>
<path d="M0 0 C0.99 0.33 1.98 0.66 3 1 C3.73046875 3.06640625 3.73046875 3.06640625 4.1875 5.5625 C4.34605469 6.38878906 4.50460938 7.21507813 4.66796875 8.06640625 C4.77753906 8.70449219 4.88710937 9.34257813 5 10 C4.34 10 3.68 10 3 10 C2.01 6.7 1.02 3.4 0 0 Z " fill="#4FBBC1" transform="translate(146,84)"/>
<path d="M0 0 C0.33 0.99 0.66 1.98 1 3 C3.00016466 4.20882096 3.00016466 4.20882096 5 5 C3.35 5.33 1.7 5.66 0 6 C0 5.34 0 4.68 0 4 C-1.65 4.33 -3.3 4.66 -5 5 C-5 4.34 -5 3.68 -5 3 C-4.360625 2.87625 -3.72125 2.7525 -3.0625 2.625 C-2.0415625 2.315625 -2.0415625 2.315625 -1 2 C-0.67 1.34 -0.34 0.68 0 0 Z " fill="#D1EAE6" transform="translate(244,103)"/>
<path d="M0 0 C1.32 0 2.64 0 4 0 C4 0.66 4 1.32 4 2 C3.34 2 2.68 2 2 2 C2 3.65 2 5.3 2 7 C1.34 7 0.68 7 0 7 C0 4.69 0 2.38 0 0 Z " fill="#4DB9BC" transform="translate(301,102)"/>
<path d="M0 0 C1.32 0 2.64 0 4 0 C4 0.66 4 1.32 4 2 C3.34 2 2.68 2 2 2 C2 3.65 2 5.3 2 7 C1.34 7 0.68 7 0 7 C0 4.69 0 2.38 0 0 Z " fill="#49BABF" transform="translate(267,102)"/>
</svg>
